<svg width="212" height="212" viewBox="0 0 212 212" fill="none" xmlns="http://www.w3.org/2000/svg">
<path opacity="0.1" d="M105.943 211.288C164.05 211.288 211.155 164.183 211.155 106.076C211.155 47.9685 164.05 0.863281 105.943 0.863281C47.8357 0.863281 0.730469 47.9685 0.730469 106.076C0.730469 164.183 47.8357 211.288 105.943 211.288Z" fill="#3AB83A"/>
<mask id="mask0_77_1589" style="mask-type:luminance" maskUnits="userSpaceOnUse" x="0" y="0" width="212" height="212">
<path d="M105.943 211.288C164.05 211.288 211.155 164.183 211.155 106.076C211.155 47.9685 164.05 0.863281 105.943 0.863281C47.8357 0.863281 0.730469 47.9685 0.730469 106.076C0.730469 164.183 47.8357 211.288 105.943 211.288Z" fill="white"/>
</mask>
<g mask="url(#mask0_77_1589)">
<path fill-rule="evenodd" clip-rule="evenodd" d="M81.6611 100.622L110.104 82.1332L138.314 100.737L109.98 49.4238L81.6611 100.622ZM82.736 105.963L110.125 87.9143L137.157 105.829L110.14 123.896L82.736 105.963ZM81.6611 111.127C91.6432 117.673 102.059 124.525 110.104 129.826L138.314 111.127C128.099 129.865 119.59 145.463 110.104 162.727C108.213 159.3 106.283 155.802 104.338 152.276L104.286 152.182L104.284 152.177C96.4699 138.014 88.4121 123.409 81.6611 111.127Z" fill="#3AB83A"/>
<path fill-rule="evenodd" clip-rule="evenodd" d="M109.99 49.4238L110.096 82.1332L138.317 100.737L109.99 49.4238ZM110.117 87.9143L137.327 105.829L110.13 123.896L110.117 87.9143ZM110.085 129.826L138.305 111.127C129.552 129.865 110.085 162.727 110.085 162.727V129.826Z" fill="#0B8311"/>
</g>
</svg>
